<?xml version="1.0" encoding="UTF-8"?>
<svg id="Layer_1" xmlns="http://www.w3.org/2000/svg" viewBox="0 0 499.6 114.9">
  <path d="M498.39,48.61c-20.04,0-111.26,0-131.3,0h-1.16v.02c-.79,0-1.59,0-2.38,0-.79,0-1.1-.25-1.36-.97-5.26-14.56-10.56-29.1-15.85-43.65-.46-1.27-.94-2.54-1.49-4.01-10.79,23.74-21.48,47.26-32.28,71.03-10.5-23.11-20.9-46-31.39-69.06-10.5,23.1-20.89,45.98-31.38,69.06-10.5-23.11-20.9-45.99-31.39-69.06-10.5,23.1-20.9,46-31.39,69.06C176.24,47.28,165.54,23.74,154.76,0c-.2.52-.3.78-.39,1.03-5.63,15.48-11.27,30.96-16.87,46.45-.32.88-.7,1.15-1.63,1.15-34.8-.03-99.76-.02-134.57-.02H0v19.57c.35.02.66.05.96.05,39.04,0,108.23,0,147.27.01.65,0,.98-.16,1.21-.82,1.36-3.86,2.78-7.71,4.18-11.56.95-2.61,1.9-5.22,2.93-8.05,10.19,22.42,20.29,44.65,30.48,67.07,10.49-23.09,20.89-45.97,31.38-69.06,10.49,23.09,20.9,45.98,31.39,69.06,10.5-23.1,20.89-45.97,31.39-69.06,10.5,23.11,20.9,45.98,31.38,69.06,10.19-22.43,20.29-44.64,30.46-67.02.18.42.28.62.35.82,2.25,6.18,4.51,12.36,6.72,18.56.26.72.56,1,1.36,1,18.06-.03,36.11-.02,54.17-.02h1.02c34.32,0,78.6,0,91.83,0,.37,0,.74-.03,1.12-.05v-19.61c-.4.01-.81.03-1.21.03Z"/>
</svg>